<?xml version="1.0" encoding="utf-8"?>
<!-- Generator: Adobe Illustrator 28.1.0, SVG Export Plug-In . SVG Version: 6.00 Build 0)  -->
<svg version="1.1" id="Слой_1" xmlns="http://www.w3.org/2000/svg" xmlns:xlink="http://www.w3.org/1999/xlink" x="0px" y="0px"
	 viewBox="0 0 635 180" style="enable-background:new 0 0 635 180;" xml:space="preserve">
<style type="text/css">
	.st0{fill:#FFFFFF;stroke:#FFFFFF;stroke-width:6;stroke-miterlimit:10;}
	.st1{fill:#FFFFFF;}
</style>
<g>
	<path class="st0" d="M517.4,174.7c-1.6,0-3.1-0.1-4.6-0.1c-1.3,0-2.4-0.1-3.5-0.1c-2,0-4.1,0-6.2,0.1c-2.2,0-4.6,0.1-6.9,0.1
		c-3.5,0-6.4-0.1-9.1-0.3h-0.2c-5.4-0.3-9.6-2.4-12.4-6.1c-3.2-4.3-3.9-10.1-1.7-15.2c1-2.5,2.3-4.4,3.4-5.7
		c0.2-0.3,0.5-0.7,0.6-0.9l6.1-9.9l24.3-38.7c1-1.5,1.9-3,3-4.4c0.8-1.1,1.8-2.6,2.7-4c-1.9-3.4-5.1-8.2-7-11
		c-1.5-2.2-2.7-4.2-3.8-5.7l-21.5-35.4c-0.5-0.8-1.3-1.8-2-3c-1.9-2.8-4.4-6.8-6.1-10.8c-2.3-5.5-4.2-9.8-2.2-13.7
		c0.5-1.1,1.3-2,2-2.8c2-1.8,4.6-2.8,7.5-2.8c9.3,0,18.6-0.1,28-0.1c1,0,1.9,0,2.9-0.1c1.3,0,2.5-0.1,4-0.1c2.3,0,5.8,0.1,9.3,0.9
		c4.6,1.1,9.1,3.8,12.8,8.1c2.7,3.2,4.7,6.7,6.5,9.8c0.5,0.9,1,1.6,1.4,2.4c1.1,1.7,2,3.4,3.1,5.2c0.6-1,1.2-2,1.7-3l0.1-0.1
		c0.5-1,1.1-1.9,1.6-3c1.6-3.1,3.6-6.6,6.1-9.8c2.6-3.4,5.7-6,9.3-7.9c3.4-1.7,6.6-2.2,8.7-2.4C577.8,4,584.1,4,587.7,4
		c20.4,0,22.8,1,24.8,1.7c5.4,2.2,7.8,6.1,8.9,9c2.3,6.5-0.6,12.5-1.5,14.5c-2.1,4.5-4.7,8.6-7.3,12.6c-1.1,1.7-2,3.3-3,4.8
		l-18.7,31.5c-1,1.7-2,3.4-3.1,5c-1.5,2.3-2.8,4.5-4,6.6c0.7,1.1,1.5,2.3,2.2,3.2c1,1.3,1.9,2.7,2.8,4.1c0.6,1,2.1,3.4,4.4,6.9
		c30.7,48.4,30.8,49.1,31.5,52.4c1,4.7-0.5,9.7-3.7,13.1c-4.3,4.6-9.5,4.8-11.2,4.9h-0.4h-25.1c-0.8,0-1.7,0-2.7,0.1
		c-1.2,0-2.4,0.1-3.8,0.1c-3,0-5.5-0.2-7.8-0.7c-5.3-1.1-8.2-4-9.9-6.1c-2.6-3.3-4.6-6.7-6.4-9.9c-0.6-1.1-1.3-2.1-1.7-3.1v-0.1
		c-1.4-2.3-2.7-4.5-4.1-6.8c-10.8,18-13,20.9-15.6,22.9c-2.4,1.8-5.1,3-8,3.4C522,174.6,519.9,174.7,517.4,174.7z"/>
	<path d="M526.9,89.3c-1.3-5.2-10.3-17.7-13.7-23.1l-21.5-35.4c-2-3.4-5.7-7.7-7-11.3c-0.4-1.1,0.1-1.4,0.5-2.4l22.5-0.1
		c4.2,0,9.2-0.5,13.3,0.5c2.3,0.5,4.4,2.2,5.8,3.9c2.6,3,4.6,7,6.6,10.3c4.7,8,9.2,16,14.1,23.8c4.5-7.2,8.8-14.5,13-21.8
		c2.1-3.7,4.2-8,6.8-11.4c1.3-1.7,3-3.3,4.8-4.2c1.3-0.7,2.6-0.9,4.1-1.1c3.8-0.4,28.8-0.4,31.1,0.6c0.7,0.3,1.3,0.7,1.5,1.4
		c0.5,1.3-0.5,3.5-1.1,4.7c-2.7,5.7-6.5,11.1-9.7,16.5l-18.5,31.5c-2.4,4-4.9,8-7.3,12c-1.2,2.1-2.6,4.8-2.1,7.3
		c1,4.5,5,8.9,7.5,12.8c3.2,5.1,33.7,52.9,34.2,55c0.2,0.8,0,1.4-0.6,2c-0.7,0.8-1.5,0.8-2.4,0.8h-24.7c-3.7,0-8,0.5-11.6-0.3
		c-1.2-0.3-1.7-0.8-2.4-1.6c-2.8-3.4-4.8-7.8-7.2-11.5c-5-8.4-10.2-16.9-15.3-25.2c-3.3,5.2-20.8,35.7-23.4,37.7
		c-0.6,0.5-1.2,0.7-1.8,0.8c-4.1,0.6-8.8,0.1-13,0.1c-7,0-14.2,0.4-21.2-0.1c-1.1-0.1-2.3-0.1-3-1c-0.7-0.9-0.6-1.9-0.2-3
		c0.7-1.6,2-3.2,2.9-4.6l6.2-9.9l24.2-38.7c2.8-4.5,7.5-9.8,8.6-14.8V89.3z"/>
	<path class="st0" d="M43.1,152.4c-10.2,0-16.5-1.1-21.1-3.9c-5.5-3.3-9.6-8.8-11-15.1c-1.1-4.5-0.9-9.1-0.8-12.8
		c0-1.1,0.1-2,0.1-2.9V95.2V54.6c0-2,0-4-0.1-6.2C10,43,9.9,37.5,10.3,32c0.2-3.5,0.8-7.7,3.7-12.3c3.6-5.7,9-9.4,16.2-11.2l1.1-0.3
		l1.2-0.1c2.4-0.2,5.1-0.3,8.1-0.3c2.9,0,5.7,0.1,8.4,0.2c1.7,0,3.5,0.1,5.1,0.1l12.7,0.2v45.1h19.9l-0.1-17.1c0-5,0-14.4,7.7-21.7
		c0.7-0.7,1.5-1.3,2.2-1.9c0.8-0.6,1.6-1.1,2.4-1.6c0.9-0.5,1.7-1,2.6-1.3c0.9-0.4,1.8-0.7,2.8-1h0.1c3.3-0.9,7.4-1.3,13.1-1.3
		c2.7,0,5.4,0.1,7.8,0.2c1.6,0.1,3.3,0.1,4.5,0.1l13,0.1l-0.1,12.8c-0.2,20.2-0.2,40.7-0.1,60.9c0.2,19.2,0.1,38.6-0.2,57.8
		l-0.2,12.5l-24.9,0.1c-0.9,0-1.6,0-2.5,0c-0.4,0-0.7,0-1.1,0l0,0c-3.8,0-13.6,0-20.5-7.3c-3.8-4-5.3-8.9-6-12.4
		c-0.8-4.5-0.7-8.8-0.6-12.6c0-1.1,0.1-2.2,0.1-3.3l0.1-12c-0.8,0-1.5,0-2.2,0H67v47.5H54.1c-1,0-2.3,0-3.9,0.1
		C48,152.3,45.6,152.4,43.1,152.4z"/>
	<path d="M54,139.4c-6.2,0-20.3,1.1-25.4-1.9c-2.6-1.5-4.5-4.2-5.1-7.2c-1-3.9-0.4-8.7-0.4-12.7V95.1V54.5c0-7.2-0.4-14.6,0.1-21.7
		c0.2-2.4,0.4-4.3,1.7-6.4c1.9-3.1,4.8-4.7,8.3-5.6c6.8-0.5,13.9-0.1,20.7,0v45.3h45.7l-0.2-29.8c0-4.6,0.1-9,3.8-12.5
		c0.3-0.3,0.7-0.6,1.1-0.9c0.4-0.3,0.8-0.5,1.2-0.8c0.4-0.2,0.8-0.4,1.3-0.6c0.4-0.2,0.9-0.3,1.3-0.5c5.2-1.4,16.1-0.6,21.9-0.6
		c-0.2,20.4-0.2,40.7-0.1,61.1c0.2,19.2,0.1,38.3-0.2,57.5h-12.4c-0.9,0-1.6,0-2.5,0c-4.1,0.1-9.1-0.2-12.1-3.4
		c-1.5-1.5-2.2-3.8-2.6-5.8c-0.8-4.3-0.3-9.2-0.3-13.6l0.1-24.8c-5-0.2-10.2,0-15.2,0l-30.5-0.1L54,139.4z"/>
	<path class="st0" d="M143,123.8l13,0.1c1.7,0,3.5,0,5.3,0.1c2.1,0,4.4,0.1,6.5,0.1c1.5,0,3,0,4.4-0.1c-0.1-0.2-0.1-0.4-0.2-0.6
		l-5.2-14L152,69.4c-0.6-1.7-1.3-3.4-1.8-5.2c-2-5.7-4.2-11.5-6-17.4l-4.8-16.1c19.1,0,33.9,0,53-0.1c3.7,7.2,7.4,14.5,11.1,21.7
		c4-7.4,7.9-14.8,11.9-22.2c20.1,0.3,36.3,0.6,56.5,0.9c-10.3,25.8-20.5,51.4-30.8,77.2c-0.9,2.2-1.8,4.8-2.8,7.6
		c-5.5,14.9-12.3,33.5-22.3,44c-12.9,13.6-29.9,13.6-42.3,13.6h-0.1c-1.5,0-2.9,0-4.4,0c-4.4,0-8.7,0.1-13,0.2l-13.3,0.3L143,123.8z
		"/>
	<path d="M203.4,92.9c4.4-12,8.1-24.2,12.2-36.4c1.3-3.8,2.7-10,4.6-13.3l1.3-0.2c10.3-0.1,20.5-0.2,30.8,0.1
		c-2.6,6-4.7,12.4-7.2,18.5l-16.2,42c-5.2,13.7-12.6,37-22.4,47.3c-9,9.4-20.7,9.6-32.9,9.6c-5.9,0-11.8,0-17.8,0.1l0.1-24
		c8.4,0,17.5,0.5,25.8-0.7c2.1-0.8,4.3-1.7,5.3-3.8c0.8-1.5,0.6-2.9,0.2-4.4c-0.8-3-2-5.9-3.1-8.8l-5.2-14L164.2,65
		c-2.6-7.3-5.4-14.6-7.7-21.9c10.1-0.2,20.2-0.3,30.3,0c1.5,5.4,3.5,10.5,5.2,15.8C195.7,70.4,199.5,81.7,203.4,92.9z"/>
	<path class="st0" d="M287.5,174.2c-2.2,0-4.5-0.1-6.3-0.2c-1.5-0.1-2.8-0.1-3.9-0.1h-12.9l-0.1-87c0-4.4-0.1-8.9-0.1-13.3
		c-0.1-10-0.2-20.2,0.2-30.5l0.5-12.4l47.5,0.1c1.4,0,2.7,0,4.1,0c1.5,0,2.8,0,4.3,0c5.5,0,11.5,0.1,17.6,1c2.8,0.4,5.6,1,8.3,1.7
		c2.7,0.8,5.3,1.6,7.9,2.8h0.1C368.1,42.1,378,52,383.2,65c6.3,15.9,6.1,35.3-0.7,50.5c-6.2,14.1-17,24-32.8,30l-0.2,0.1l-0.2,0.1
		c-7.8,2.7-16.1,3.9-25.9,3.9c-1.1,0-2.2,0-3.3,0c-0.6,5.7-2.3,12-7.6,17.1C305.5,173.4,295.5,174.2,287.5,174.2z M319.4,100.4
		c0.3,0,0.7,0,1,0l0,0c3.1,0,5.7-0.4,7.9-1.1c3-1.4,3.9-3,4.4-4.4c1.2-3.2,1-7.1-0.4-10v-0.1c-0.1-0.1-0.1-0.2-0.2-0.3
		c0-0.1-0.1-0.2-0.2-0.3c-0.1-0.1-0.1-0.2-0.2-0.3c-0.1-0.1-0.1-0.2-0.2-0.3c-0.1-0.1-0.1-0.2-0.2-0.3c-0.1-0.1-0.1-0.2-0.2-0.3
		c-0.1-0.1-0.2-0.2-0.2-0.3c-0.1-0.1-0.2-0.2-0.3-0.3c-0.1-0.1-0.2-0.1-0.3-0.2c-0.1-0.1-0.2-0.1-0.3-0.2c-0.1-0.1-0.2-0.1-0.3-0.2
		c-0.1-0.1-0.2-0.1-0.3-0.2c-0.1-0.1-0.2-0.1-0.3-0.2c-0.1,0-0.2-0.1-0.3-0.2c-0.1,0-0.2-0.1-0.3-0.1s-0.2-0.1-0.3-0.1
		c-1.6-0.6-4-1-6.2-1c-1,0-1.8,0.1-2.6,0.2l0,0c0,1.1,0,2,0,3C319.4,89.1,319.4,94.7,319.4,100.4z"/>
	<path d="M277.4,161.2L277.3,87c0-14.4-0.5-28.9,0-43.3l34.5,0.1c8.1,0,16.5-0.3,24.6,0.9c2.2,0.3,4.5,0.8,6.6,1.4
		c2.1,0.6,4.3,1.3,6.4,2.2c10,4.2,17.5,11.6,21.5,21.6c4.9,12.5,4.9,28.4-0.5,40.7c-5.1,11.6-13.9,18.7-25.7,23.2
		c-12.5,4.2-24.7,3.4-37.6,2.3c-0.4,6.9,1.5,16.2-3.9,21.5C297.8,162.8,284.7,161.2,277.4,161.2z M317.8,67.9
		c-3.8,0.3-7.5,0.9-11.1,1.8c0,14-0.3,28.2,0.1,42.2c8.8,1.2,18.1,2.3,26.6-0.9c5.4-2.5,9.5-6.1,11.5-11.8c2.2-6.2,2-13.7-0.9-19.7
		c-0.1-0.3-0.3-0.6-0.5-0.9c-0.2-0.3-0.3-0.6-0.5-0.9c-0.2-0.3-0.4-0.6-0.5-0.9c-0.2-0.3-0.4-0.6-0.6-0.8c-0.2-0.2-0.4-0.5-0.6-0.8
		c-0.2-0.3-0.4-0.5-0.7-0.8c-0.2-0.3-0.5-0.5-0.7-0.7s-0.5-0.5-0.7-0.7c-0.3-0.2-0.5-0.5-0.8-0.7c-0.3-0.2-0.5-0.4-0.8-0.6
		c-0.3-0.2-0.6-0.4-0.8-0.6c-0.3-0.2-0.6-0.4-0.9-0.5c-0.3-0.2-0.6-0.3-0.9-0.5c-0.3-0.2-0.6-0.3-0.9-0.5s-0.6-0.3-0.9-0.4
		c-0.3-0.1-0.6-0.2-1-0.4C328.1,67.7,322.4,67.3,317.8,67.9z"/>
	<path class="st0" d="M447.6,151.2c-19.4,0-34.9-4.4-46-12.9c-11.2-8.6-18.1-21.6-20-37.5c-2.2-18.5,2.3-36.2,12.3-48.5
		c9.1-11.2,22.9-18.2,39.8-20.1c2.5-0.4,5-0.4,6.9-0.4c0.7,0,1.4,0,1.9,0h1c9.9,0.1,24.6,1.2,38,10.4c11.9,8.2,19.9,21.2,22.5,36.4
		c0.3,1.7,0.9,6.1,1.1,10.9c0.3,6.4,0,12.9-4.1,17.6c-2.5,3-5.4,4.2-7.7,4.8c0.1,0.4,0.3,0.9,0.4,1.3c0.4,1.5,0.8,3.7-1,14.2
		c-1.5,9.8-2.8,13-5.6,15.9c-4.7,4.8-11.6,5.5-16.7,6c-0.5,0-0.9,0.1-1.2,0.1C461.4,150.8,454.3,151.2,447.6,151.2z"/>
	<path d="M478.3,114.5c0.8,0,1.3,0,2,0.3c0.5,0.5,0.7,0.8,0.8,1.4c0.4,1.7-2,17.4-3.2,18.5c-1.7,1.8-7.7,2.1-10.4,2.4
		c-18.5,2.4-42.7,3-58-8.9c-9.2-7.2-13.8-17.5-15.1-28.8c-1.5-13.4,0.8-28.3,9.5-39c7.7-9.5,19.4-14.1,31.4-15.4
		c2.6-0.4,5.5-0.3,8.1-0.3c10.9,0.1,21.5,1.8,30.6,8.1c9.5,6.6,15.3,16.9,17.1,28.1c0.6,3.2,2,15.8-0.1,18.2c-0.7,0.8-1.2,0.8-2,0.9
		c-5.7,0.6-14.5,0.1-20.4,0.1h-45.2c1,3.4,2.2,6.3,4.8,8.9c7.5,7.2,20,5.6,29.4,5.6L478.3,114.5z M442.4,67.2
		c-5.9,0.5-10.8,2.1-14.8,6.7c-2.6,3.1-3.9,6.5-4.8,10.3c7.5,0.1,14.9,0.1,22.5,0h19.1c-0.8-5.3-2.6-9.9-7.1-13.1
		C452.8,67.9,447.7,67.3,442.4,67.2z"/>
	<rect x="311.8" y="70.5" class="st1" width="25.6" height="31.1"/>
	<rect x="498.3" y="82.6" class="st1" width="21" height="17.1"/>
</g>
</svg>
