<?xml version="1.0" encoding="UTF-8"?>
<svg xmlns="http://www.w3.org/2000/svg" xmlns:xlink="http://www.w3.org/1999/xlink" width="694.2pt" height="268.5pt" viewBox="0 0 694.2 268.5" version="1.1">
<defs>
<clipPath id="clip1">
  <path d="M 678 88 L 694.199219 88 L 694.199219 99 L 678 99 Z M 678 88 "/>
</clipPath>
<clipPath id="clip2">
  <path d="M 0 35 L 233 35 L 233 268.5 L 0 268.5 Z M 0 35 "/>
</clipPath>
</defs>
<g id="surface1">
<path style=" stroke:none;fill-rule:evenodd;fill:rgb(8.227539%,8.616638%,8.616638%);fill-opacity:1;" d="M 267.613281 62.296875 C 275.859375 62.296875 284.054688 62.3125 292.246094 62.382813 L 325.117188 125.824219 L 325.117188 62.296875 L 344.84375 62.296875 L 344.84375 162.855469 L 323.175781 162.859375 L 287.339844 91.441406 L 287.339844 162.855469 L 267.613281 162.855469 Z M 267.613281 62.296875 "/>
<path style=" stroke:none;fill-rule:evenodd;fill:rgb(8.227539%,8.616638%,8.616638%);fill-opacity:1;" d="M 567.355469 86.738281 C 588.679688 86.738281 605.96875 104.027344 605.96875 125.351563 C 605.96875 146.675781 588.679688 163.964844 567.355469 163.964844 C 546.03125 163.964844 528.742188 146.675781 528.742188 125.351563 C 528.742188 104.027344 546.03125 86.738281 567.355469 86.738281 Z M 567.355469 106.183594 C 577.941406 106.183594 586.523438 114.765625 586.523438 125.351563 C 586.523438 135.9375 577.941406 144.519531 567.355469 144.519531 C 556.769531 144.519531 548.1875 135.9375 548.1875 125.351563 C 548.1875 114.765625 556.769531 106.183594 567.355469 106.183594 Z M 567.355469 106.183594 "/>
<path style=" stroke:none;fill-rule:evenodd;fill:rgb(8.227539%,8.616638%,8.616638%);fill-opacity:1;" d="M 389.566406 86.738281 C 410.894531 86.738281 428.179688 104.027344 428.179688 125.351563 C 428.179688 146.675781 410.894531 163.964844 389.566406 163.964844 C 368.242188 163.964844 350.953125 146.675781 350.953125 125.351563 C 350.953125 104.027344 368.242188 86.738281 389.566406 86.738281 Z M 389.566406 106.183594 C 400.152344 106.183594 408.734375 114.765625 408.734375 125.351563 C 408.734375 135.9375 400.152344 144.519531 389.566406 144.519531 C 378.980469 144.519531 370.398438 135.9375 370.398438 125.351563 C 370.398438 114.765625 378.980469 106.183594 389.566406 106.183594 Z M 389.566406 106.183594 "/>
<path style=" stroke:none;fill-rule:evenodd;fill:rgb(8.227539%,8.616638%,8.616638%);fill-opacity:1;" d="M 434.570313 88.964844 C 434.570313 113.59375 434.570313 138.222656 434.570313 162.855469 C 441.886719 162.855469 449.199219 162.855469 456.515625 162.855469 C 456.515625 151.238281 456.515625 139.617188 456.515625 128.003906 C 456.515625 124.929688 456.984375 123.027344 457.984375 120.078125 C 459.996094 114.140625 463.390625 109.09375 469.320313 105.6875 C 472.351563 103.949219 472.691406 103.964844 476.042969 103.964844 C 480.644531 103.964844 485.25 103.964844 489.851563 103.964844 C 489.851563 117.296875 489.851563 130.628906 489.851563 143.964844 C 490.554688 165.929688 513.121094 166.484375 529.574219 162.019531 C 528.648438 157.113281 527.722656 152.210938 526.796875 147.296875 C 517.386719 149.480469 510.683594 150.113281 510.683594 138.316406 C 510.683594 126.863281 510.683594 115.414063 510.683594 103.964844 C 515.964844 103.964844 521.242188 103.964844 526.519531 103.964844 C 526.519531 98.777344 526.519531 93.589844 526.519531 88.40625 C 521.425781 88.40625 516.332031 88.40625 511.242188 88.40625 C 511.242188 81.464844 511.242188 74.515625 511.242188 67.570313 C 505.40625 67.570313 499.574219 67.570313 493.738281 67.570313 C 492.074219 74.515625 490.40625 81.464844 488.738281 88.40625 C 484.691406 88.40625 480.644531 88.40625 476.597656 88.40625 C 471.296875 88.40625 466.675781 89.796875 462.265625 92.871094 C 458.46875 95.519531 455.511719 99.300781 453.738281 104.515625 C 451.609375 99.425781 449.476563 94.335938 447.347656 89.238281 C 443.089844 89.144531 438.828125 89.054688 434.570313 88.964844 Z M 434.570313 88.964844 "/>
<path style=" stroke:none;fill-rule:evenodd;fill:rgb(8.227539%,8.616638%,8.616638%);fill-opacity:1;" d="M 611.414063 88.589844 C 611.414063 113.449219 611.414063 138.316406 611.414063 163.179688 C 618.351563 163.179688 625.289063 163.179688 632.226563 163.179688 C 632.226563 146.726563 632.226563 130.273438 632.226563 113.820313 C 632.226563 106.914063 648.859375 100.742188 655.796875 109.21875 C 657.632813 111.464844 657.460938 112.054688 657.460938 114.738281 C 657.460938 130.761719 657.460938 146.785156 657.460938 162.808594 C 664.519531 162.808594 671.582031 162.808594 678.640625 162.808594 C 678.640625 145.683594 678.640625 128.554688 678.640625 111.425781 C 678.640625 105.589844 675.863281 99.894531 672.257813 95.351563 C 667 88.714844 659.453125 85.738281 648.570313 87.765625 C 641.222656 89.136719 635.359375 93.359375 628.542969 100.191406 C 627.070313 96.382813 625.597656 92.578125 624.125 88.769531 C 619.886719 88.714844 615.652344 88.648438 611.414063 88.589844 Z M 611.414063 88.589844 "/>
<g clip-path="url(#clip1)" clip-rule="nonzero">
<path style=" stroke:none;fill-rule:evenodd;fill:rgb(8.227539%,8.616638%,8.616638%);fill-opacity:1;" d="M 682.738281 90.128906 L 685.25 90.128906 L 685.25 88.402344 L 678.488281 88.402344 L 678.488281 90.128906 L 681 90.128906 L 681 98.164063 L 682.738281 98.164063 Z M 694.257813 88.402344 L 691.746094 88.402344 L 690.261719 96.097656 L 690.238281 96.097656 L 688.734375 88.402344 L 686.199219 88.402344 L 686.199219 98.164063 L 687.820313 98.164063 L 687.820313 90.007813 L 687.84375 90.007813 L 689.359375 98.164063 L 691.0625 98.164063 L 692.613281 90.007813 L 692.636719 90.007813 L 692.636719 98.164063 L 694.257813 98.164063 Z M 694.257813 88.402344 "/>
</g>
<g clip-path="url(#clip2)" clip-rule="nonzero">
<path style=" stroke:none;fill-rule:evenodd;fill:rgb(98.826599%,73.242188%,9.008789%);fill-opacity:1;" d="M 116.292969 268.441406 C 52.195313 268.433594 0.0234375 216.269531 0.015625 152.152344 C 0.0234375 88.046875 52.195313 35.886719 116.292969 35.882813 C 180.402344 35.886719 232.574219 88.046875 232.574219 152.152344 C 232.574219 216.269531 180.402344 268.433594 116.292969 268.441406 Z M 116.292969 72.671875 C 95.082031 72.671875 75.121094 80.9375 60.085938 95.949219 C 45.074219 110.972656 36.796875 130.933594 36.796875 152.152344 C 36.796875 173.378906 45.074219 193.347656 60.089844 208.378906 C 75.109375 223.378906 95.078125 231.652344 116.292969 231.652344 C 137.527344 231.652344 157.488281 223.378906 172.519531 208.359375 C 187.515625 193.347656 195.792969 173.378906 195.792969 152.152344 C 195.792969 130.933594 187.515625 110.972656 172.515625 95.941406 C 157.480469 80.9375 137.507813 72.671875 116.292969 72.671875 Z M 116.292969 72.671875 "/>
</g>
<path style=" stroke:none;fill-rule:evenodd;fill:rgb(98.826599%,73.242188%,9.008789%);fill-opacity:1;" d="M 242.964844 27.035156 L 252.035156 27.035156 L 252.035156 17.976563 L 242.964844 17.976563 Z M 242.964844 27.035156 "/>
<path style=" stroke:none;fill-rule:evenodd;fill:rgb(98.826599%,73.242188%,9.008789%);fill-opacity:1;" d="M 242.964844 8.988281 L 252.035156 8.988281 L 252.035156 -0.09375 L 242.964844 -0.09375 Z M 242.964844 8.988281 "/>
<path style=" stroke:none;fill-rule:evenodd;fill:rgb(98.826599%,73.242188%,9.008789%);fill-opacity:1;" d="M 217.453125 35.828125 L 225.929688 35.828125 L 225.929688 26.972656 L 217.453125 26.972656 Z M 217.453125 35.828125 "/>
<path style=" stroke:none;fill-rule:evenodd;fill:rgb(8.227539%,8.616638%,8.616638%);fill-opacity:1;" d="M 200.667969 52.824219 L 209.207031 52.824219 L 209.207031 44.363281 L 200.667969 44.363281 Z M 200.667969 52.824219 "/>
<path style=" stroke:none;fill-rule:evenodd;fill:rgb(8.227539%,8.616638%,8.616638%);fill-opacity:1;" d="M 225.929688 44.363281 L 235.421875 44.363281 L 235.421875 35.835938 L 225.929688 35.835938 Z M 225.929688 44.363281 "/>
<path style=" stroke:none;fill-rule:evenodd;fill:rgb(8.227539%,8.616638%,8.616638%);fill-opacity:1;" d="M 192.167969 44.363281 L 200.667969 44.363281 L 200.667969 36.253906 L 192.167969 36.253906 Z M 192.167969 44.363281 "/>
<path style=" stroke:none;fill-rule:evenodd;fill:rgb(8.227539%,8.616638%,8.616638%);fill-opacity:1;" d="M 217.453125 52.824219 L 225.929688 52.824219 L 225.929688 44.363281 L 217.453125 44.363281 Z M 217.453125 52.824219 "/>
<path style=" stroke:none;fill-rule:evenodd;fill:rgb(8.227539%,8.616638%,8.616638%);fill-opacity:1;" d="M 234 17.976563 L 242.964844 17.976563 L 242.964844 8.988281 L 234 8.988281 Z M 234 17.976563 "/>
<path style=" stroke:none;fill-rule:evenodd;fill:rgb(8.227539%,8.616638%,8.616638%);fill-opacity:1;" d="M 217.453125 26.972656 L 234 26.972656 L 234 17.980469 L 217.453125 17.980469 Z M 217.453125 26.972656 "/>
<path style=" stroke:none;fill-rule:evenodd;fill:rgb(8.227539%,8.616638%,8.616638%);fill-opacity:1;" d="M 209.207031 44.363281 L 217.453125 44.363281 L 217.453125 26.972656 L 209.207031 26.972656 Z M 209.207031 44.363281 "/>
<path style=" stroke:none;fill-rule:evenodd;fill:rgb(8.227539%,8.616638%,8.616638%);fill-opacity:1;" d="M 209.207031 52.824219 L 209.207031 61.355469 L 200.667969 61.355469 L 200.667969 52.824219 L 186.503906 52.824219 L 186.503906 58.972656 L 178.910156 58.972656 L 178.910156 66.558594 L 187.390625 66.558594 L 187.390625 75.007813 L 178.910156 75.007813 L 178.910156 66.558594 L 169.90625 66.558594 L 169.90625 79.8125 L 161.382813 79.8125 L 161.382813 88.269531 L 155.722656 88.269531 L 155.722656 96.761719 L 149.507813 96.761719 C 142.519531 107.152344 125.019531 139.523438 119.722656 152.71875 C 100.65625 126.171875 85.847656 115.648438 74.183594 111.839844 C 67.886719 109.941406 60.308594 116.796875 70.761719 127.578125 C 94.757813 153.96875 102.320313 175.820313 109.609375 193.257813 C 113.46875 202.445313 130.769531 203.867188 134.253906 194.519531 C 141.640625 174.726563 152.34375 152.503906 165.023438 134.253906 L 165.023438 124.785156 L 171.792969 124.785156 L 171.792969 116.257813 L 178.910156 116.257813 L 178.910156 106.371094 L 187.421875 106.371094 L 187.421875 96.847656 L 178.820313 96.847656 L 178.820313 88.183594 L 187.421875 88.183594 L 187.421875 96.847656 L 195.835938 96.847656 L 195.808594 88.269531 L 202.566406 88.269531 L 202.566406 77.921875 L 210.148438 77.921875 L 210.148438 70.796875 L 217.453125 70.796875 L 217.453125 52.824219 Z M 209.207031 52.824219 "/>
<path style=" stroke:none;fill-rule:evenodd;fill:rgb(59.568787%,59.568787%,59.959412%);fill-opacity:1;" d="M 363.898438 231.558594 L 361.511719 235.339844 C 363.34375 236.777344 365.933594 238.292969 369.171875 239.398438 C 371.984375 240.359375 375.289063 241.003906 379.007813 241.003906 C 384.855469 241.003906 389.402344 239.546875 392.496094 237.011719 C 395.664063 234.417969 397.332031 230.660156 397.332031 226.160156 C 397.332031 221.382813 395.570313 218.101563 392.726563 215.617188 C 389.792969 213.058594 385.683594 211.28125 381.125 209.589844 C 376.9375 208.046875 374.007813 206.6875 372.089844 205.042969 C 370.046875 203.289063 369.152344 201.261719 369.152344 198.46875 C 369.152344 195.753906 369.9375 193.511719 371.804688 191.925781 C 373.613281 190.394531 376.402344 189.535156 380.441406 189.535156 C 383.75 189.535156 386.441406 190.058594 388.664063 190.78125 C 390.453125 191.367188 391.929688 192.085938 393.179688 192.761719 L 395.078125 188.601563 C 393.316406 187.664063 391.519531 186.835938 389.394531 186.21875 C 386.964844 185.519531 384.058594 185.089844 380.214844 185.089844 C 374.820313 185.089844 370.765625 186.425781 368.023438 188.667969 C 365.105469 191.058594 363.65625 194.503906 363.65625 198.46875 C 363.65625 203.101563 365.257813 206.273438 367.855469 208.671875 C 370.519531 211.136719 374.277344 212.851563 378.445313 214.492188 C 382.5 216.089844 385.683594 217.429688 387.90625 219.195313 C 390.257813 221.058594 391.507813 223.335938 391.507813 226.714844 C 391.507813 229.828125 390.304688 232.253906 388.128906 233.917969 C 385.980469 235.566406 382.894531 236.429688 379.117188 236.429688 C 375.515625 236.429688 372.449219 235.734375 369.8125 234.714844 C 367.539063 233.828125 365.59375 232.703125 363.898438 231.558594 Z M 363.898438 231.558594 "/>
<path style=" stroke:none;fill-rule:evenodd;fill:rgb(59.568787%,59.568787%,59.959412%);fill-opacity:1;" d="M 400.871094 201.386719 L 406.785156 201.386719 L 417.417969 235.847656 L 427.574219 201.386719 L 433.324219 201.386719 L 419.492188 245.042969 C 417.257813 252.15625 413.503906 255.917969 406.386719 255.917969 C 404.945313 255.917969 403.269531 255.597656 402.070313 255.195313 L 402.792969 250.882813 C 403.667969 251.039063 404.703125 251.277344 405.988281 251.277344 C 410.785156 251.277344 413.578125 248.40625 414.9375 243.765625 Z M 400.871094 201.386719 "/>
<path style=" stroke:none;fill-rule:evenodd;fill:rgb(59.568787%,59.568787%,59.959412%);fill-opacity:1;" d="M 481.875 200.671875 C 489.800781 200.671875 491.792969 207.304688 491.792969 213.78125 L 491.792969 241.367188 L 486.035156 241.367188 L 486.035156 213.859375 C 486.035156 209.628906 485.398438 205.621094 480.117188 205.621094 C 476.515625 205.621094 472.761719 207.867188 469.011719 211.707031 L 469.011719 241.367188 L 463.25 241.367188 L 463.25 213.859375 C 463.25 209.628906 462.617188 205.621094 457.328125 205.621094 C 453.652344 205.621094 449.824219 208.183594 446.21875 211.785156 L 446.21875 241.367188 L 440.464844 241.367188 L 440.464844 201.386719 L 443.742188 201.386719 L 445.421875 207.941406 C 449.097656 204.027344 453.652344 200.671875 459.09375 200.671875 C 464.289063 200.671875 466.527344 203.550781 468.121094 207.714844 C 471.882813 203.628906 476.6875 200.671875 481.875 200.671875 Z M 481.875 200.671875 "/>
<path style=" stroke:none;fill-rule:evenodd;fill:rgb(59.568787%,59.568787%,59.959412%);fill-opacity:1;" d="M 524.515625 220.183594 C 515.796875 221.859375 510.042969 223.703125 507.882813 226.417969 C 506.847656 227.695313 506.527344 228.894531 506.527344 230.730469 C 506.527344 234.8125 508.523438 237.285156 513.316406 237.285156 C 517.875 237.285156 521.792969 234.890625 524.515625 232.8125 Z M 524.515625 214.34375 C 524.515625 208.503906 522.753906 205.542969 516.433594 205.542969 C 512.355469 205.542969 508.683594 207.226563 505.089844 209.144531 L 502.929688 205.226563 C 506.6875 202.671875 510.996094 200.671875 516.921875 200.671875 C 526.59375 200.671875 530.273438 206.03125 530.273438 214.738281 L 530.273438 241.367188 L 526.996094 241.367188 C 526.996094 241.367188 525.3125 236.484375 525.242188 236.484375 C 522.433594 239.285156 517.953125 242.007813 512.761719 242.007813 C 505.8125 242.007813 500.683594 237.605469 500.683594 231.050781 C 500.683594 226.648438 502.453125 223.535156 506.277344 221.292969 C 509.957031 219.140625 516.601563 217.542969 524.515625 216.34375 C 524.515625 216.257813 524.515625 214.34375 524.515625 214.34375 Z M 524.515625 214.34375 "/>
<path style=" stroke:none;fill-rule:evenodd;fill:rgb(59.568787%,59.568787%,59.959412%);fill-opacity:1;" d="M 543.082031 201.386719 L 546.355469 201.386719 L 548.035156 208.183594 C 551.71875 204.027344 556.429688 200.671875 562.503906 200.671875 C 570.984375 200.671875 573.21875 207.304688 573.21875 213.78125 L 573.21875 241.367188 L 567.472656 241.367188 L 567.472656 213.859375 C 567.472656 209.628906 566.5 205.621094 560.746094 205.621094 C 556.675781 205.621094 552.433594 208.183594 548.839844 212.023438 L 548.839844 241.367188 L 543.082031 241.367188 Z M 543.082031 201.386719 "/>
<path style=" stroke:none;fill-rule:evenodd;fill:rgb(59.568787%,59.568787%,59.959412%);fill-opacity:1;" d="M 581.179688 205.542969 L 581.179688 201.386719 L 587.339844 201.386719 L 589.019531 189.960938 L 592.929688 189.960938 L 592.929688 201.386719 L 601.886719 201.386719 L 601.886719 205.542969 L 592.929688 205.542969 L 592.929688 231.535156 C 592.929688 235.371094 593.574219 237.527344 597.410156 237.527344 C 599.089844 237.527344 600.207031 237.214844 602.054688 236.726563 L 602.925781 240.722656 C 601.410156 241.445313 599.253906 242.007813 597.167969 242.007813 C 590.132813 242.007813 587.183594 238.484375 587.183594 231.929688 L 587.183594 205.542969 Z M 581.179688 205.542969 "/>
<path style=" stroke:none;fill-rule:evenodd;fill:rgb(59.568787%,59.568787%,59.959412%);fill-opacity:1;" d="M 633.363281 218.820313 C 633.050781 209.714844 630.003906 205.070313 624.015625 205.070313 C 618.574219 205.070313 614.816406 209.382813 614.34375 218.820313 Z M 624.972656 237.363281 C 629.609375 237.363281 632.492188 235.691406 635.929688 233.371094 L 638.398438 236.726563 C 634.570313 240.003906 631.050781 242.007813 624.496094 242.007813 C 614.5 242.007813 608.1875 234.011719 608.1875 221.378906 C 608.1875 208.988281 614.421875 200.671875 623.933594 200.671875 C 633.683594 200.671875 639.285156 207.867188 639.285156 221.703125 L 639.285156 222.976563 L 614.261719 222.976563 C 614.660156 232.332031 617.773438 237.363281 624.972656 237.363281 Z M 624.972656 237.363281 "/>
<path style=" stroke:none;fill-rule:evenodd;fill:rgb(59.568787%,59.568787%,59.959412%);fill-opacity:1;" d="M 646.347656 221.703125 C 646.347656 211.867188 650.34375 200.671875 662.574219 200.671875 C 667.695313 200.671875 671.53125 202.113281 674.804688 204.828125 L 672.410156 208.664063 C 669.929688 206.753906 666.492188 205.3125 662.574219 205.3125 C 653.457031 205.3125 652.425781 214.984375 652.425781 221.777344 C 652.425781 228.171875 653.703125 237.363281 662.894531 237.363281 C 667.132813 237.363281 670.089844 235.769531 672.808594 233.371094 L 675.527344 236.648438 C 672.808594 239.527344 668.640625 242.007813 662.574219 242.007813 C 650.667969 242.007813 646.347656 231.292969 646.347656 221.703125 Z M 646.347656 221.703125 "/>
<path style=" stroke:none;fill-rule:evenodd;fill:rgb(59.568787%,59.568787%,59.959412%);fill-opacity:1;" d="M 305.230469 201.386719 L 311.144531 201.386719 L 321.777344 235.847656 L 331.9375 201.386719 L 337.6875 201.386719 L 323.855469 245.042969 C 321.617188 252.15625 317.863281 255.917969 310.75 255.917969 C 309.304688 255.917969 307.632813 255.597656 306.429688 255.195313 L 307.152344 250.882813 C 308.03125 251.039063 309.066406 251.277344 310.347656 251.277344 C 315.148438 251.277344 317.9375 248.40625 319.300781 243.765625 Z M 305.230469 201.386719 "/>
<path style=" stroke:none;fill-rule:evenodd;fill:rgb(59.568787%,59.568787%,59.959412%);fill-opacity:1;" d="M 294.402344 217.023438 C 294.496094 217.828125 294.570313 218.671875 294.621094 219.511719 C 294.671875 220.382813 294.699219 221.246094 294.699219 222.039063 C 294.699219 222.558594 294.683594 223.078125 294.652344 223.582031 C 294.625 224.089844 294.582031 224.589844 294.523438 225.070313 C 294.464844 225.558594 294.390625 226.035156 294.304688 226.503906 C 294.214844 226.96875 294.113281 227.429688 293.996094 227.878906 C 293.878906 228.328125 293.746094 228.753906 293.605469 229.167969 C 293.457031 229.585938 293.300781 229.980469 293.125 230.367188 C 292.953125 230.746094 292.765625 231.117188 292.5625 231.472656 C 292.363281 231.832031 292.144531 232.167969 291.914063 232.492188 L 291.90625 232.503906 C 291.675781 232.820313 291.429688 233.128906 291.171875 233.40625 C 290.914063 233.695313 290.636719 233.964844 290.347656 234.214844 C 290.058594 234.464844 289.753906 234.703125 289.4375 234.914063 C 289.125 235.128906 288.792969 235.320313 288.449219 235.503906 C 288.109375 235.675781 287.753906 235.832031 287.382813 235.964844 C 287.011719 236.097656 286.628906 236.210938 286.234375 236.296875 C 285.835938 236.382813 285.421875 236.453125 285 236.492188 C 284.574219 236.539063 284.136719 236.558594 283.6875 236.558594 C 283.390625 236.558594 283.09375 236.550781 282.808594 236.527344 C 282.519531 236.503906 282.238281 236.472656 281.960938 236.425781 C 281.679688 236.382813 281.410156 236.328125 281.148438 236.257813 C 280.9375 236.210938 280.730469 236.144531 280.527344 236.078125 L 280.484375 236.0625 L 280.472656 236.054688 L 280.375 236.023438 C 280.121094 235.933594 279.875 235.84375 279.640625 235.746094 C 279.40625 235.652344 279.175781 235.550781 278.945313 235.441406 C 278.722656 235.339844 278.5 235.226563 278.28125 235.105469 C 278.066406 234.988281 277.855469 234.867188 277.652344 234.742188 L 277.652344 234.738281 L 277.648438 234.738281 C 277.449219 234.609375 277.253906 234.480469 277.074219 234.351563 C 276.886719 234.222656 276.707031 234.089844 276.53125 233.953125 C 276.359375 233.8125 276.1875 233.671875 276.027344 233.53125 C 275.867188 233.386719 275.710938 233.242188 275.566406 233.097656 C 275.421875 232.957031 275.28125 232.808594 275.148438 232.664063 C 275.015625 232.523438 274.890625 232.382813 274.769531 232.253906 C 274.652344 232.113281 274.539063 231.980469 274.433594 231.851563 C 274.332031 231.722656 274.234375 231.59375 274.140625 231.46875 L 274.117188 231.4375 L 274.097656 231.40625 L 274.097656 210.652344 L 274.132813 210.617188 L 274.167969 210.589844 C 274.484375 210.277344 274.816406 209.980469 275.15625 209.703125 C 275.5 209.414063 275.851563 209.148438 276.214844 208.898438 L 276.242188 208.878906 C 276.59375 208.632813 276.964844 208.402344 277.34375 208.183594 C 277.730469 207.960938 278.128906 207.746094 278.542969 207.550781 C 278.957031 207.355469 279.378906 207.179688 279.804688 207.035156 C 280.230469 206.886719 280.667969 206.765625 281.109375 206.667969 C 281.550781 206.570313 282 206.496094 282.457031 206.453125 C 282.914063 206.398438 283.378906 206.378906 283.847656 206.378906 C 284.148438 206.378906 284.453125 206.386719 284.753906 206.410156 C 285.058594 206.4375 285.367188 206.472656 285.675781 206.523438 C 285.988281 206.578125 286.292969 206.632813 286.597656 206.710938 C 286.902344 206.777344 287.214844 206.867188 287.523438 206.964844 C 287.828125 207.058594 288.132813 207.179688 288.433594 207.316406 C 288.730469 207.460938 289.027344 207.617188 289.320313 207.796875 C 289.613281 207.976563 289.898438 208.179688 290.179688 208.398438 C 290.460938 208.617188 290.738281 208.855469 291.007813 209.113281 C 291.277344 209.378906 291.539063 209.660156 291.785156 209.96875 C 292.03125 210.277344 292.265625 210.613281 292.484375 210.976563 C 292.707031 211.335938 292.914063 211.714844 293.109375 212.128906 C 293.304688 212.535156 293.488281 212.964844 293.660156 213.421875 C 293.816406 213.839844 293.953125 214.355469 294.074219 214.941406 C 294.203125 215.578125 294.3125 216.28125 294.402344 217.019531 Z M 300.117188 226.28125 C 300.230469 225.554688 300.3125 224.796875 300.371094 224.007813 C 300.429688 223.21875 300.457031 222.398438 300.457031 221.550781 C 300.457031 220.878906 300.4375 220.109375 300.398438 219.320313 C 300.363281 218.558594 300.3125 217.773438 300.242188 217.023438 C 300.179688 216.347656 300.101563 215.683594 300.011719 215.082031 C 299.929688 214.527344 299.835938 214.03125 299.730469 213.628906 C 299.609375 213.160156 299.480469 212.710938 299.339844 212.273438 C 299.199219 211.839844 299.046875 211.417969 298.886719 211.019531 C 298.726563 210.617188 298.554688 210.230469 298.375 209.863281 C 298.195313 209.496094 298.003906 209.144531 297.800781 208.808594 C 297.597656 208.46875 297.386719 208.140625 297.167969 207.835938 C 296.953125 207.527344 296.730469 207.230469 296.5 206.953125 C 296.269531 206.667969 296.027344 206.398438 295.78125 206.144531 C 295.535156 205.890625 295.277344 205.652344 295.015625 205.425781 C 294.75 205.207031 294.480469 204.984375 294.207031 204.777344 C 293.933594 204.570313 293.660156 204.378906 293.386719 204.191406 C 293.109375 204.007813 292.832031 203.839844 292.550781 203.675781 C 292.273438 203.515625 291.988281 203.367188 291.707031 203.230469 C 291.421875 203.089844 291.132813 202.964844 290.84375 202.84375 C 290.558594 202.726563 290.269531 202.617188 289.976563 202.515625 C 289.691406 202.421875 289.398438 202.335938 289.105469 202.253906 C 288.816406 202.179688 288.527344 202.113281 288.238281 202.054688 C 287.945313 202.003906 287.65625 201.953125 287.371094 201.90625 C 287.085938 201.863281 286.808594 201.832031 286.542969 201.800781 C 286.269531 201.773438 285.996094 201.753906 285.730469 201.738281 C 285.464844 201.726563 285.207031 201.71875 284.949219 201.71875 C 284.398438 201.71875 283.863281 201.742188 283.351563 201.789063 C 282.835938 201.839844 282.335938 201.910156 281.84375 202.003906 C 281.355469 202.097656 280.886719 202.21875 280.429688 202.359375 C 279.972656 202.503906 279.527344 202.664063 279.097656 202.851563 C 278.671875 203.042969 278.257813 203.253906 277.859375 203.472656 C 277.460938 203.703125 277.074219 203.945313 276.699219 204.214844 C 276.324219 204.472656 275.960938 204.757813 275.613281 205.0625 C 275.265625 205.367188 274.929688 205.6875 274.609375 206.027344 L 274.574219 206.0625 L 274.542969 206.097656 L 274.097656 206.097656 L 274.097656 185.023438 L 268.574219 185.023438 L 268.574219 240.195313 L 272.675781 240.195313 L 273.886719 236.277344 L 273.910156 236.195313 L 273.933594 236.117188 L 274.347656 236.117188 L 274.382813 236.171875 L 274.414063 236.226563 C 274.460938 236.300781 274.519531 236.390625 274.589844 236.488281 C 274.660156 236.585938 274.738281 236.6875 274.824219 236.796875 L 274.886719 236.878906 L 274.890625 236.878906 L 274.890625 236.882813 C 274.960938 236.96875 275.035156 237.058594 275.109375 237.148438 C 275.21875 237.277344 275.335938 237.410156 275.453125 237.546875 C 275.574219 237.679688 275.703125 237.816406 275.84375 237.957031 C 275.984375 238.089844 276.136719 238.222656 276.296875 238.359375 C 276.460938 238.496094 276.636719 238.632813 276.820313 238.769531 C 277 238.898438 277.191406 239.03125 277.390625 239.164063 L 277.394531 239.164063 L 277.402344 239.171875 C 277.601563 239.304688 277.8125 239.433594 278.035156 239.554688 C 278.257813 239.679688 278.496094 239.800781 278.742188 239.914063 C 278.988281 240.03125 279.25 240.144531 279.527344 240.253906 C 279.769531 240.347656 280.023438 240.441406 280.285156 240.53125 L 280.378906 240.5625 C 280.671875 240.65625 280.976563 240.742188 281.289063 240.8125 C 281.601563 240.886719 281.929688 240.945313 282.265625 240.996094 C 282.605469 241.042969 282.957031 241.082031 283.320313 241.101563 C 283.679688 241.128906 284.054688 241.140625 284.4375 241.140625 C 284.953125 241.140625 285.464844 241.113281 285.96875 241.066406 C 286.46875 241.019531 286.972656 240.945313 287.46875 240.84375 C 287.964844 240.746094 288.457031 240.628906 288.945313 240.476563 C 289.417969 240.335938 289.886719 240.167969 290.34375 239.980469 L 290.382813 239.964844 C 290.863281 239.769531 291.332031 239.546875 291.78125 239.304688 C 292.234375 239.058594 292.671875 238.785156 293.097656 238.492188 C 293.519531 238.195313 293.929688 237.871094 294.328125 237.523438 C 294.726563 237.175781 295.113281 236.800781 295.484375 236.398438 L 295.519531 236.363281 C 295.878906 235.972656 296.222656 235.558594 296.550781 235.117188 C 296.886719 234.664063 297.203125 234.183594 297.503906 233.675781 C 297.804688 233.171875 298.085938 232.636719 298.351563 232.078125 C 298.617188 231.515625 298.863281 230.925781 299.09375 230.3125 C 299.320313 229.695313 299.519531 229.050781 299.691406 228.382813 C 299.863281 227.710938 300.003906 227.007813 300.117188 226.28125 Z M 300.117188 226.28125 "/>
</g>
</svg>
