<svg width="765" height="305" viewBox="0 0 765 305" fill="none" xmlns="http://www.w3.org/2000/svg">
<path d="M215.21 29.9209C223.658 35.4529 229.02 48.1869 230.344 57.8409C228.52 60.6069 227.506 63.4749 226.41 66.5769C223.938 75.9449 216.856 35.4189 215.21 29.9209Z" fill="white"/>
<path d="M75.1466 32.7646C77.0366 34.0126 78.4786 37.7426 79.1146 39.8806C77.5506 46.5106 71.0586 104.991 70.8746 105.197C69.2826 105.369 67.8886 105.455 66.2948 105.269C63.5164 100.737 73.6966 41.3946 75.1466 32.7646Z" fill="white"/>
<path d="M579.248 53.4189C581.73 55.7389 583.508 62.439 584.818 65.775C576.418 80.027 537.442 78.015 520.804 79.581C518.284 88.657 519.884 102.761 512.87 103.277C511.818 103.361 507.656 103.811 507.162 102.835C505.13 98.813 509.844 71.8269 511.114 66.5769C535.508 67.5289 560.212 69.5549 579.248 53.4189Z" fill="white"/>
<path d="M559.248 271.102L559.882 270.992C561.632 271.728 567.628 280.374 569.348 282.328C555.27 287.822 538.768 287.026 523.924 288.502C498.11 291.072 487.026 296.708 462.856 286.52C458.448 282.576 454.124 278.692 450.878 273.7C471.568 285.898 486.402 279.528 509.498 277.242C522.748 275.93 547.84 274.798 559.248 271.102Z" fill="white"/>
<path d="M543.625 108.435C559.581 110.051 567.859 143.213 566.705 156.915C563.957 189.509 541.475 193.429 514.415 190.799C514.321 194.403 514.397 198.125 513.793 201.683L512.871 202.279C509.533 202.187 506.227 202.165 502.889 202.279V180.041C516.827 180.351 537.819 182.063 547.789 170.969C562.095 155.047 559.499 122.443 543.625 108.435Z" fill="white"/>
<path d="M652.955 227.076C655.235 229.056 658.651 238.62 659.977 241.732C655.243 254.386 647.635 274.938 640.221 285.962C628.313 303.664 602.953 310.78 584.819 298.134C580.369 294.862 577.333 291.046 574.225 286.52C629.067 310.99 633.637 258.076 652.955 227.076Z" fill="white"/>
<path d="M64.6385 181.39C66.7065 181.282 68.8025 181.372 70.8745 181.39C70.8525 196.326 70.6065 211.292 71.1965 226.218L72.1605 249.11C72.3525 253.518 72.8745 258.126 72.4125 262.518C69.5685 289.59 40.7555 303.996 17.2845 291.64C13.4889 288.894 9.99174 286.188 7.26514 282.328C29.8891 291.912 58.3271 278.894 61.8037 253.268C63.8057 238.51 58.2239 189.552 62.3051 182.29C62.6343 181.704 63.9963 181.564 64.6385 181.39Z" fill="white"/>
<path d="M151.009 93.3145C151.897 94.1085 158.487 121.526 159.443 125.352C161.935 135.316 159.535 163.12 159.165 174.322C158.229 202.806 162.111 236.084 159.829 262.894C157.561 289.526 125.427 305.564 102.841 291.64C98.6366 288.902 94.7386 285.118 91.9946 280.922C113.649 292.418 142.497 283.018 148.075 257.34C150.951 244.102 148.189 218.652 147.867 204.064C147.145 171.24 146.387 125.874 151.009 93.3145Z" fill="white"/>
<path d="M426.879 168.986C427.665 170.134 426.889 188.042 426.879 190.798C412.511 200.894 395.677 208.834 377.883 209.636C377.787 230.536 380.283 261.704 368.761 279.26C356.245 298.326 333.407 301.576 314.961 289.334L308.347 282.328C322.389 287.722 338.003 287.378 350.007 277.262C369.853 260.536 364.681 221.564 366.931 195.818C390.143 193.23 409.253 183.926 426.879 168.986Z" fill="white"/>
<path d="M295.91 95.3145C298.116 100.806 295.158 110.992 294.75 116.926C292.382 151.284 288.048 153.324 272.938 185.512C256.3 220.954 276.688 258.47 255.316 283.202C243.014 297.442 220.638 302.258 205.704 289.334C203.254 287.278 201.252 284.742 199.168 282.328C214.18 288.11 228.816 286.678 240.728 275.806C254.342 263.378 253.588 249.17 253.618 232.07L253.836 205.394C254.008 190.348 255.748 185.316 262.152 172.118C274.732 146.184 284.322 121.378 295.91 95.3145Z" fill="white"/>
<path d="M748.81 10.6904C755.528 12.3864 760.504 21.4744 762.434 27.5504C768.644 47.1004 754.96 63.5944 746.016 79.6984C734.056 101.23 719.896 125.592 708.88 147.304L708.636 147.792C712.442 155.916 716.874 163.828 720.832 171.896L743.606 219.256C748.06 228.398 754.06 237.02 756.836 246.882C765.138 276.362 727.212 307.26 700.49 291.64C695.044 289.072 690.988 285.368 687.012 280.922C717.688 289.4 754.568 271.332 746.61 238.29C741.926 218.842 709.484 159.836 698.76 137.32C709.176 113.636 727.146 84.3804 739.564 60.7584C749.288 42.2664 758.416 32.5764 748.81 10.6904Z" fill="white"/>
<path d="M277.568 8.29688C293.86 9.69887 306.95 22.0089 302.004 38.6069C299.144 48.1989 294.39 57.5549 290.662 66.8569C277.152 100.557 263.134 134.997 246.318 167.239C235.206 188.545 238.866 207.125 238.89 231.201C238.906 245.605 241.452 261.831 224.772 268.385C185.152 283.957 194.608 216.145 195.326 197.435C196.216 174.281 195.456 178.575 187.348 156.485C177.914 130.919 156.466 64.6729 154.55 36.8509C153.458 21.0069 169.618 6.3569 185.152 12.3609C199.826 18.0309 200.644 36.1989 203.758 49.3369C208.742 70.3709 214.43 99.8389 223.064 119.517C232.356 104.963 246.13 62.2489 251.924 45.2529C256.748 31.1069 259.984 11.5789 277.568 8.29688Z" fill="white"/>
<path d="M548.196 4.70451C579.906 2.45851 576.436 41.5045 560.07 47.3485C545.822 52.4345 515.186 48.2165 496.358 52.6025C493.874 75.7425 491.33 98.8465 489.242 122.031C501.828 119.653 524.72 115.379 534.486 123.825C543.31 131.459 542.698 150.674 535.216 158.872C529.046 165.632 497.172 164.81 486.13 165.528C486.112 183.552 486.39 201.603 486.13 219.621C506.608 217.179 551.894 203.897 562.848 223.983C569.336 237.893 561.224 254.781 545.832 256.983C530.862 259.125 484.326 264.556 472.304 263.906C439.91 262.154 443.646 210.287 443.648 187.653C443.65 153.503 446.764 64.6325 456.514 32.2305C463.618 8.62251 483.026 8.99452 503.468 7.69252C518.364 6.74252 533.338 6.13451 548.196 4.70451Z" fill="white"/>
<path d="M350.883 8.29678C402.153 5.60678 437.069 30.0188 439.619 82.7028C442.485 141.925 410.953 177.471 352.299 180.041C350.803 195.411 349.903 211.635 349.799 227.077C349.217 237.517 350.559 251.893 344.367 260.785C334.117 275.501 306.521 269.953 304.323 251.741C300.407 219.329 309.815 142.049 312.537 107.855C314.389 84.5928 314.505 60.5448 318.555 37.5528C321.725 19.5568 332.317 9.93878 350.883 8.29678ZM362.001 52.6028C358.465 68.8248 354.797 123.337 354.899 139.669C362.641 137.039 371.259 134.807 377.883 129.855C396.697 116.273 401.551 81.9348 387.909 63.3048C381.319 54.3028 372.147 53.3828 362.001 52.6028Z" fill="white"/>
<path d="M609.736 1.20443C635.462 -3.08957 646.55 61.4764 656.646 80.5104L656.984 81.1424C667.196 65.4184 690.424 11.9424 705.638 6.65042C722.3 0.854419 741.236 15.5444 735.454 33.6224C732.67 42.3304 725.276 53.6884 720.776 62.1364L679.842 137.32C695.188 166.696 716.41 206.304 728.332 236.554C735.712 255.28 721.384 267.378 703.318 267.662C689.604 263.88 687.472 255.466 680.884 243.822C671 226.354 661.812 208.814 652.954 190.798C643.958 206.314 635.792 222.274 628.18 238.508C622.652 250.3 618.018 270.214 603.792 274.188C592.146 277.442 577.46 272.16 574.308 259.558C570.192 243.102 618.682 154.642 627.856 139.668C624.682 131.706 622.07 123.54 619.148 115.486L600.278 63.4944C593.898 45.8324 572.654 5.23643 609.736 1.20443Z" fill="white"/>
<path d="M86.0485 122.03C91.1665 92.8505 88.6125 52.8045 96.8685 26.3305C105.335 -0.813488 144.011 5.61649 140.917 33.9785C133.375 103.064 130.165 157.338 131.861 226.152C132.257 242.232 136.936 255.309 123.608 267.663C90.7265 275.201 89.0645 258.172 87.5625 229.152C86.4665 207.968 86.0105 186.74 86.0485 165.528H45.9005L45.8985 225.77C45.9437 235.538 48.7225 247.612 44.5797 256.848C36.4019 275.082 7.9857 273.278 2.8169 254.028C0.269704 244.542 1.1517 225.437 1.1323 215.087C1.0253 157.953 3.8837 109.999 11.4289 53.7565C14.1489 33.4805 12.2203 13.9185 36.2581 8.29648C46.6223 7.32848 58.2663 18.6145 59.0241 28.7605C59.5505 35.8105 56.9047 43.9845 55.9999 51.0325C53.0467 74.0325 49.0673 98.9105 48.8821 122.03H86.0485Z" fill="white"/>
</svg>
